<?xml version="1.0" standalone="no"?>
<!DOCTYPE svg PUBLIC "-//W3C//DTD SVG 20010904//EN"
 "http://www.w3.org/TR/2001/REC-SVG-20010904/DTD/svg10.dtd">
<svg version="1.0" xmlns="http://www.w3.org/2000/svg"
 width="600.000000pt" height="150.000000pt" viewBox="0 0 600.000000 150.000000"
 preserveAspectRatio="xMidYMid meet">

<g transform="translate(0.000000,150.000000) scale(0.100000,-0.100000)"
fill="#000000" stroke="none">
<path d="M0 750 l0 -750 3000 0 3000 0 0 750 0 750 -3000 0 -3000 0 0 -750z
m1300 380 l0 -210 101 0 c61 0 99 -4 97 -10 -5 -16 -361 -500 -367 -500 -6 1
-363 486 -369 501 -2 5 42 9 97 9 l101 0 0 210 0 210 170 0 170 0 0 -210z
m1490 20 c0 -16 7 -20 30 -20 24 0 30 4 30 21 0 19 4 21 30 15 36 -7 79 -36
80 -53 0 -23 -22 -25 -44 -4 -29 27 -38 27 -34 -1 3 -20 10 -23 51 -26 33 -2
47 -7 47 -18 0 -8 -10 -14 -22 -14 -20 -1 -21 -2 -6 -10 15 -9 15 -14 -8 -53
-27 -48 -30 -79 -10 -96 11 -9 15 -9 18 1 4 11 8 11 21 0 13 -11 14 -18 5 -38
-15 -33 -42 -30 -69 7 l-21 30 -29 -27 c-24 -23 -31 -25 -44 -14 -14 11 -13
14 2 26 19 14 6 18 -21 8 -10 -4 -16 -18 -16 -35 0 -19 -5 -29 -15 -29 -10 0
-15 10 -15 30 0 17 -1 30 -3 30 -1 0 -18 -4 -37 -10 -25 -7 -36 -7 -42 3 -17
27 -8 37 37 37 25 0 45 5 45 10 0 6 -14 10 -30 10 -33 0 -50 24 -31 43 15 15
14 27 -4 27 -8 0 -15 7 -15 15 0 9 9 15 24 15 14 0 28 5 31 10 4 6 -10 10 -34
10 -30 0 -41 4 -41 15 0 11 12 15 50 15 28 0 50 5 50 10 0 6 -16 10 -35 10
-24 0 -35 5 -35 15 0 10 11 15 35 15 28 0 35 4 35 20 0 13 7 20 20 20 13 0 20
-7 20 -20z m-180 -25 c0 -12 -15 -15 -75 -15 l-75 0 0 -140 c0 -133 -1 -140
-20 -140 -19 0 -20 7 -20 140 l0 140 -65 0 c-51 0 -65 3 -65 15 0 13 24 15
160 15 136 0 160 -2 160 -15z m-67 -106 c48 -41 58 -63 33 -72 -17 -7 -111 87
-102 102 11 17 17 14 69 -30z m927 -503 c8 -10 29 -16 56 -16 44 0 44 0 44
-35 0 -24 -5 -35 -15 -35 -8 0 -15 -4 -15 -10 0 -5 -18 -10 -40 -10 -29 0 -40
-4 -40 -15 0 -11 12 -15 45 -15 33 0 45 -4 45 -15 0 -11 -12 -15 -45 -15 -41
0 -45 -2 -45 -24 0 -18 7 -25 30 -29 17 -4 44 -4 60 0 26 5 30 3 30 -17 0 -22
-2 -23 -75 -17 -42 4 -89 14 -106 22 -29 16 -31 15 -51 -10 -16 -21 -23 -23
-34 -14 -13 10 -11 16 10 38 13 14 28 40 32 56 9 41 12 45 29 39 10 -4 13 -14
9 -30 -6 -24 9 -54 27 -54 5 0 9 23 9 50 l0 50 -40 0 c-22 0 -40 5 -40 10 0 6
-7 10 -15 10 -10 0 -15 11 -15 35 l0 35 56 0 c48 0 55 2 44 15 -16 20 -4 38
19 26 10 -6 23 -17 31 -25z m970 13 c0 -5 14 -9 30 -9 20 0 30 -5 30 -15 0 -8
-9 -15 -20 -15 -11 0 -20 -7 -20 -15 0 -8 9 -15 20 -15 16 0 20 -7 20 -30 0
-23 -4 -30 -20 -30 -13 0 -18 5 -14 15 4 8 1 15 -5 15 -6 0 -11 -16 -11 -35
l0 -34 -67 -4 -68 -3 78 -2 77 -2 0 -43 0 -44 -75 5 c-52 3 -75 1 -75 -7 0 -6
-7 -11 -15 -11 -12 0 -15 17 -16 93 -1 50 -3 84 -6 75 -7 -29 -33 -21 -33 10
0 15 -5 33 -10 38 -8 8 -2 21 19 42 31 34 51 41 51 18 0 -8 14 -15 35 -18 28
-3 38 1 50 19 14 21 45 23 45 2z m-3780 -114 l0 -125 468 2 467 3 3 123 3 122
65 0 64 0 -2 -187 -3 -188 -600 0 -600 0 -3 188 -2 187 70 0 70 0 0 -125z
m1880 86 c0 -51 11 -57 49 -25 26 21 34 24 46 14 22 -18 19 -23 -25 -43 -22
-10 -40 -25 -40 -33 0 -8 21 -34 46 -58 27 -27 41 -47 35 -51 -20 -12 -50 6
-81 47 l-30 42 0 -55 c0 -60 -11 -79 -47 -79 -16 0 -23 6 -23 19 0 12 7 18 18
17 15 -1 17 10 19 84 l2 85 -19 -51 c-26 -66 -79 -128 -99 -115 -12 8 -8 17
22 50 20 23 37 45 37 50 0 5 3 16 6 25 5 13 -1 16 -30 16 -25 0 -36 4 -36 15
0 12 13 15 60 15 l60 0 0 35 c0 24 5 35 15 35 11 0 15 -11 15 -39z m310 24 c0
-11 12 -15 50 -15 38 0 50 -4 50 -15 0 -11 -14 -15 -57 -17 -57 -2 -57 -2 -10
-5 33 -3 47 -8 47 -19 0 -10 -12 -14 -39 -14 -22 0 -43 -4 -46 -10 -4 -6 18
-10 59 -10 52 0 66 -3 66 -15 0 -8 -7 -15 -16 -15 -8 0 -13 -4 -10 -9 3 -5 -6
-17 -21 -26 l-27 -18 23 -18 c13 -11 29 -19 37 -19 8 0 11 -6 8 -15 -9 -22
-33 -18 -71 11 -25 19 -33 21 -33 10 0 -17 -73 -59 -84 -49 -3 4 -6 22 -6 40
l0 34 -30 -21 c-16 -12 -34 -18 -40 -15 -15 9 -12 35 5 35 8 0 29 13 47 30
l33 29 -47 1 c-36 0 -48 4 -48 15 0 12 13 15 60 15 33 0 60 4 60 10 0 6 -18
10 -40 10 -57 0 -55 27 3 33 40 3 40 4 -10 5 -40 2 -53 6 -53 17 0 11 12 15
50 15 38 0 50 4 50 15 0 8 9 15 20 15 11 0 20 -7 20 -15z m230 -20 c0 -24 5
-35 15 -35 8 0 15 -5 15 -11 0 -19 20 2 40 42 11 21 25 39 30 39 5 0 16 -16
24 -35 9 -20 29 -43 46 -53 47 -27 36 -43 -36 -52 l-41 -5 18 -29 18 -30 10
27 c7 18 15 25 26 21 18 -7 18 -12 0 -44 -21 -37 -18 -50 10 -50 16 0 25 -6
25 -15 0 -12 -17 -15 -95 -15 -76 0 -95 3 -95 14 0 11 15 16 52 18 30 2 53 8
56 16 2 6 -3 12 -11 12 -16 0 -41 56 -31 71 3 5 -6 9 -20 9 -14 0 -26 -4 -26
-10 0 -5 6 -10 14 -10 19 0 42 -58 28 -72 -8 -8 -16 -1 -28 26 -27 56 -44 47
-44 -24 0 -47 -3 -60 -15 -60 -12 0 -15 13 -15 58 -1 51 -2 55 -15 38 -8 -10
-21 -16 -29 -13 -13 5 -12 13 9 49 29 50 30 58 10 58 -8 0 -15 7 -15 15 0 8 9
15 20 15 16 0 20 7 20 35 0 24 5 35 15 35 10 0 15 -11 15 -35z m614 12 c-2
-16 7 -18 89 -15 l90 3 1 -54 c1 -44 -2 -55 -16 -59 -15 -4 -18 -16 -18 -73 0
-55 -3 -69 -15 -69 -8 0 -15 5 -15 10 0 6 -25 10 -55 10 -30 0 -55 -4 -55 -10
0 -5 -7 -10 -15 -10 -12 0 -15 13 -15 60 0 55 -2 60 -21 57 -34 -3 -32 17 3
38 l33 20 -32 3 c-18 2 -33 6 -33 10 0 4 10 28 22 54 23 47 55 62 52 25z m319
17 c3 -4 -3 -18 -13 -32 -24 -30 -25 -42 -4 -42 11 0 15 6 11 20 -8 33 15 35
40 4 l23 -29 0 43 c0 36 3 43 18 40 10 -2 16 -11 14 -21 -3 -17 -1 -17 26 -3
26 13 32 14 42 1 10 -12 5 -17 -29 -31 -46 -18 -55 -44 -16 -44 16 0 25 6 25
15 0 16 25 21 34 7 9 -16 -25 -52 -48 -52 -13 0 -27 -7 -30 -16 -9 -23 -1 -28
24 -14 22 12 50 7 50 -7 0 -4 -18 -16 -40 -25 -22 -9 -40 -23 -40 -31 0 -23
39 -28 60 -7 24 24 46 11 31 -19 -14 -26 -55 -37 -90 -25 -25 9 -26 14 -29 87
-2 42 -7 77 -12 77 -5 0 -10 -37 -12 -82 -3 -76 -5 -83 -24 -86 -12 -2 -24 4
-27 12 -4 10 -1 16 8 16 8 0 15 7 15 15 0 10 -10 15 -26 15 -24 0 -26 -3 -20
-30 5 -25 2 -30 -14 -30 -18 0 -20 7 -20 83 0 51 -5 88 -12 95 -9 9 -7 17 9
34 11 13 26 33 32 46 11 21 31 29 44 16z m1011 0 c8 -3 12 -12 9 -20 -4 -10 4
-14 31 -14 l36 0 -21 -41 c-22 -44 -16 -58 23 -59 22 0 29 -12 18 -30 -7 -11
-15 -11 -50 5 -28 13 -44 15 -51 8 -8 -8 0 -14 25 -23 37 -12 46 -27 22 -36
-19 -7 -78 24 -70 37 4 7 -1 7 -15 0 -11 -7 -21 -8 -21 -4 0 4 -4 3 -8 -3 -10
-16 -89 -27 -97 -13 -4 5 0 18 7 27 30 34 33 46 10 40 -26 -7 -38 18 -19 41 8
9 19 31 27 49 13 34 17 37 39 23 11 -7 9 -15 -10 -40 -12 -17 -19 -34 -15 -38
4 -4 15 3 25 16 12 16 24 22 35 18 12 -5 21 3 33 28 9 19 18 35 19 35 1 0 9
-3 18 -6z m332 -26 c-1 -23 3 -33 14 -33 10 0 14 8 13 23 -2 16 2 22 17 22 16
0 20 -7 20 -35 l0 -35 -53 0 c-30 0 -88 -3 -130 -6 -67 -6 -77 -5 -77 10 0 9
8 16 20 16 21 0 27 15 10 25 -15 9 -12 25 4 25 8 0 23 -11 34 -25 11 -14 23
-25 26 -25 3 0 6 11 6 25 0 18 5 25 20 25 14 0 19 -6 17 -21 -1 -12 4 -24 11
-26 8 -3 12 7 12 31 0 29 4 36 19 36 15 0 19 -7 17 -32z m-2998 5 c2 -7 -3
-13 -12 -13 -14 0 -16 -17 -16 -120 0 -100 3 -120 15 -120 8 0 15 -7 15 -15 0
-10 -10 -15 -30 -15 l-30 0 0 151 0 150 27 -3 c14 -2 28 -9 31 -15z m2442 -58
l0 -75 -30 0 c-40 0 -39 -18 2 -22 46 -4 49 -28 4 -28 -25 0 -36 -4 -36 -15 0
-11 11 -15 40 -15 29 0 40 -4 40 -15 0 -12 -18 -15 -100 -15 -84 0 -100 2
-100 16 0 11 -6 14 -22 8 -35 -11 -61 -10 -65 2 -2 7 8 14 22 18 21 5 25 12
25 46 0 33 -3 40 -20 40 -11 0 -20 7 -20 15 0 8 9 15 20 15 29 0 28 47 -2 52
-12 2 -23 9 -26 16 -3 9 13 12 57 12 34 0 61 4 61 10 0 6 32 10 75 10 l75 0 0
-75z m715 -75 l0 -145 -29 0 c-16 0 -31 6 -33 13 -3 7 4 12 16 12 20 0 21 5
21 120 0 113 -1 120 -20 120 -20 0 -26 11 -13 24 4 4 19 6 33 4 l25 -3 0 -145z
m-77 38 c-3 -7 -23 -14 -46 -16 -23 -2 -42 -8 -42 -14 0 -7 13 -8 35 -5 l35 6
0 -64 c0 -57 -2 -64 -22 -71 -29 -9 -53 26 -49 72 1 20 -2 34 -8 34 -6 0 -11
-18 -11 -40 0 -57 -27 -55 -33 3 -3 36 -4 34 -5 -15 -2 -44 -6 -58 -17 -58
-10 0 -15 10 -15 26 0 25 -2 26 -41 20 -22 -4 -45 -7 -52 -9 -6 -1 -13 6 -15
16 -3 13 3 17 25 17 16 0 23 4 17 8 -16 10 -35 80 -23 88 14 8 29 -5 29 -27 0
-10 5 -19 10 -19 6 0 10 11 10 23 0 13 3 27 7 30 3 4 53 7 111 7 78 0 103 -3
100 -12z m-478 -112 c0 -17 -103 -51 -108 -36 -7 20 -2 25 40 37 59 15 68 15
68 -1z m87 -2 c39 -15 52 -31 37 -46 -9 -10 -104 36 -104 50 0 16 16 15 67 -4z"/>
<path d="M2790 1090 c0 -5 14 -10 30 -10 17 0 30 5 30 10 0 6 -13 10 -30 10
-16 0 -30 -4 -30 -10z"/>
<path d="M2775 1040 c-4 -6 10 -10 34 -10 23 0 41 5 41 10 0 6 -15 10 -34 10
-19 0 -38 -4 -41 -10z"/>
<path d="M2890 1013 c0 -41 13 -35 24 10 5 20 3 27 -9 27 -11 0 -15 -11 -15
-37z"/>
<path d="M2823 1002 c-40 -4 -46 -32 -7 -32 36 0 28 -33 -11 -42 -26 -6 -25
-7 8 -3 23 2 37 0 37 -8 0 -8 3 -8 11 0 7 7 8 24 2 49 -7 37 -10 39 -40 36z"/>
<path d="M2735 980 c-3 -5 -1 -10 4 -10 6 0 11 5 11 10 0 6 -2 10 -4 10 -3 0
-8 -4 -11 -10z"/>
<path d="M3356 455 c5 -12 25 -15 95 -15 72 0 89 3 89 15 0 12 -17 15 -95 15
-80 0 -93 -2 -89 -15z"/>
<path d="M4270 475 c-10 -13 -9 -15 9 -15 11 0 21 4 21 9 0 18 -18 21 -30 6z"/>
<path d="M4330 481 c0 -6 4 -12 8 -15 5 -3 9 1 9 9 0 8 -4 15 -9 15 -4 0 -8
-4 -8 -9z"/>
<path d="M4397 484 c-9 -10 2 -24 18 -24 9 0 12 6 9 15 -6 16 -17 19 -27 9z"/>
<path d="M4320 390 c0 -5 23 -10 50 -10 28 0 50 5 50 10 0 6 -22 10 -50 10
-27 0 -50 -4 -50 -10z"/>
<path d="M4320 310 c0 -6 27 -10 60 -10 33 0 60 4 60 10 0 6 -27 10 -60 10
-33 0 -60 -4 -60 -10z"/>
<path d="M2813 370 c-14 -22 -17 -70 -5 -70 5 0 17 6 27 14 18 13 18 16 5 45
-14 30 -15 31 -27 11z"/>
<path d="M2866 375 c4 -8 10 -15 14 -15 4 0 13 7 20 15 11 13 8 15 -13 15 -19
0 -25 -4 -21 -15z"/>
<path d="M3162 459 c-17 -26 -12 -31 28 -27 l32 3 -24 22 -24 22 -12 -20z"/>
<path d="M3080 429 c0 -5 5 -7 10 -4 6 3 10 8 10 11 0 2 -4 4 -10 4 -5 0 -10
-5 -10 -11z"/>
<path d="M3665 470 c-3 -5 1 -10 9 -10 9 0 16 5 16 10 0 6 -4 10 -9 10 -6 0
-13 -4 -16 -10z"/>
<path d="M3720 470 c0 -6 11 -10 25 -10 14 0 25 4 25 8 0 4 -11 9 -25 10 -14
1 -25 -3 -25 -8z"/>
<path d="M3800 450 c0 -25 4 -30 25 -30 21 0 25 5 25 30 0 25 -4 30 -25 30
-21 0 -25 -5 -25 -30z"/>
<path d="M3757 405 c11 -15 27 -24 43 -23 25 1 25 1 1 5 -13 3 -26 13 -28 24
-3 10 -12 19 -20 19 -11 0 -10 -5 4 -25z"/>
<path d="M3696 403 c-12 -12 -5 -23 14 -23 11 0 20 4 20 9 0 11 -26 22 -34 14z"/>
<path d="M3700 350 c0 -5 25 -10 55 -10 30 0 55 5 55 10 0 6 -25 10 -55 10
-30 0 -55 -4 -55 -10z"/>
<path d="M3728 303 c18 -2 45 -2 60 0 15 2 0 4 -33 4 -33 0 -45 -2 -27 -4z"/>
<path d="M4003 433 c9 -2 23 -2 30 0 6 3 -1 5 -18 5 -16 0 -22 -2 -12 -5z"/>
<path d="M3983 393 c9 -2 23 -2 30 0 6 3 -1 5 -18 5 -16 0 -22 -2 -12 -5z"/>
<path d="M3983 353 c9 -2 23 -2 30 0 6 3 -1 5 -18 5 -16 0 -22 -2 -12 -5z"/>
<path d="M5018 458 c9 -9 15 -9 24 0 9 9 7 12 -12 12 -19 0 -21 -3 -12 -12z"/>
<path d="M4980 431 c0 -8 -7 -11 -20 -8 -15 4 -25 -2 -37 -19 -21 -33 -14 -37
30 -19 42 17 54 32 38 48 -8 8 -11 8 -11 -2z"/>
<path d="M4680 485 c0 -8 7 -15 15 -15 8 0 15 7 15 15 0 8 -7 15 -15 15 -8 0
-15 -7 -15 -15z"/>
<path d="M4740 485 c0 -8 7 -15 15 -15 8 0 15 7 15 15 0 8 -7 15 -15 15 -8 0
-15 -7 -15 -15z"/>
<path d="M4610 455 c0 -16 6 -25 15 -25 8 0 15 -7 15 -15 0 -8 -7 -15 -15 -15
-11 0 -15 -11 -15 -36 0 -36 0 -36 25 -20 13 9 36 16 50 16 34 0 32 18 -2 22
-26 3 -28 7 -31 51 -3 39 -6 47 -23 47 -14 0 -19 -7 -19 -25z"/>
<path d="M4682 428 c6 -18 28 -21 28 -4 0 9 -7 16 -16 16 -9 0 -14 -5 -12 -12z"/>
<path d="M4740 425 c0 -8 7 -15 15 -15 8 0 15 7 15 15 0 8 -7 15 -15 15 -8 0
-15 -7 -15 -15z"/>
<path d="M4642 315 c-11 -13 -7 -15 28 -15 29 0 40 4 40 15 0 20 -50 19 -68 0z"/>
<path d="M5243 365 c-9 -29 -9 -35 3 -35 9 0 14 11 14 30 0 27 2 30 25 24 15
-4 25 -2 25 5 0 6 -13 11 -28 11 -24 0 -30 -6 -39 -35z"/>
<path d="M5370 333 c0 -16 5 -35 10 -43 7 -11 10 -4 10 28 0 23 -4 42 -10 42
-5 0 -10 -12 -10 -27z"/>
</g>
</svg>
